<svg xmlns="http://www.w3.org/2000/svg" xmlns:xlink="http://www.w3.org/1999/xlink" width="139" zoomAndPan="magnify" viewBox="0 0 104.25 106.499998" height="142" preserveAspectRatio="xMidYMid meet" version="1.0"><defs><clipPath id="65cb8813a0"><path d="M 20 20 L 101 20 L 101 105.871094 L 20 105.871094 Z M 20 20 " clip-rule="nonzero"/></clipPath><clipPath id="b7ffc390aa"><path d="M 27 0.132812 L 35 0.132812 L 35 16 L 27 16 Z M 27 0.132812 " clip-rule="nonzero"/></clipPath></defs><g clip-path="url(#65cb8813a0)"><path fill="#bbe1d7" d="M 74.179688 35.578125 C 72.46875 36.324219 71.144531 37.574219 70.296875 39.097656 C 68.253906 35.46875 63.75 33.90625 59.863281 35.597656 C 58.066406 36.382812 56.671875 37.765625 55.84375 39.382812 C 53.601562 36.453125 49.574219 35.3125 46.027344 36.855469 C 44.351562 37.585938 43.015625 38.816406 42.179688 40.316406 L 35.75 25.558594 C 33.941406 21.410156 29.085938 19.515625 24.9375 21.320312 C 20.785156 23.128906 18.882812 27.96875 20.691406 32.117188 L 36.375 68.128906 C 32.933594 66.351562 28.59375 67.234375 26.136719 70.425781 C 23.371094 74.003906 24.046875 79.167969 27.625 81.9375 L 53.109375 101.582031 L 53.398438 101.8125 C 55.179688 103.160156 57.183594 104.136719 59.308594 104.679688 C 63 105.675781 66.816406 105.378906 70.347656 103.839844 L 90.613281 95.011719 C 99.140625 91.296875 103.058594 81.339844 99.332031 72.796875 L 84.972656 39.820312 C 83.167969 35.675781 78.328125 33.769531 74.179688 35.578125 Z M 96.339844 74.105469 C 99.339844 80.988281 96.179688 89.023438 89.3125 92.015625 L 69.046875 100.84375 C 66.207031 102.082031 63.128906 102.304688 60.136719 101.507812 C 58.410156 101.066406 56.8125 100.289062 55.398438 99.207031 L 29.628906 79.347656 C 27.476562 77.683594 27.070312 74.582031 28.738281 72.429688 C 29.265625 71.757812 29.929688 71.257812 30.671875 70.9375 C 32.261719 70.246094 34.175781 70.398438 35.640625 71.546875 L 38.988281 74.121094 L 40.851562 78.394531 C 41.210938 79.222656 42.175781 79.601562 43.003906 79.242188 C 43.832031 78.878906 44.230469 77.910156 43.871094 77.078125 L 23.714844 30.8125 C 22.632812 28.324219 23.769531 25.433594 26.257812 24.351562 C 28.746094 23.265625 31.652344 24.394531 32.738281 26.882812 L 47.515625 60.8125 C 47.878906 61.640625 48.839844 62.019531 49.671875 61.660156 C 50.519531 61.289062 50.894531 60.328125 50.535156 59.496094 L 44.804688 46.34375 C 43.71875 43.855469 44.847656 40.949219 47.339844 39.863281 C 49.84375 38.773438 52.742188 39.929688 53.832031 42.433594 L 55.632812 46.417969 L 60.832031 58.347656 C 61.191406 59.179688 62.15625 59.558594 62.984375 59.199219 C 63.816406 58.835938 64.195312 57.875 63.832031 57.042969 L 58.628906 45.089844 C 57.542969 42.601562 58.695312 39.707031 61.183594 38.621094 C 63.675781 37.535156 66.582031 38.664062 67.664062 41.152344 L 74.484375 56.8125 C 74.847656 57.640625 75.808594 58.019531 76.640625 57.65625 C 77.46875 57.296875 77.847656 56.332031 77.488281 55.503906 L 72.945312 45.070312 C 71.859375 42.582031 73.003906 39.667969 75.492188 38.585938 C 77.984375 37.5 80.898438 38.644531 81.980469 41.132812 Z M 96.339844 74.105469 " fill-opacity="1" fill-rule="nonzero"/></g><path fill="#fef7e1" d="M 81.976562 41.128906 L 96.339844 74.105469 C 99.339844 80.988281 96.179688 89.023438 89.3125 92.015625 L 69.046875 100.84375 C 66.207031 102.082031 63.128906 102.304688 60.136719 101.507812 C 58.410156 101.066406 56.8125 100.289062 55.398438 99.207031 L 29.628906 79.347656 C 27.476562 77.683594 27.070312 74.582031 28.738281 72.429688 C 29.265625 71.757812 29.929688 71.257812 30.671875 70.9375 C 32.261719 70.246094 34.175781 70.398438 35.640625 71.546875 L 38.988281 74.121094 L 40.851562 78.394531 C 41.210938 79.222656 42.175781 79.601562 43.003906 79.242188 C 43.832031 78.878906 44.230469 77.910156 43.871094 77.078125 L 23.714844 30.8125 C 22.632812 28.324219 23.769531 25.433594 26.257812 24.351562 C 28.746094 23.265625 31.652344 24.394531 32.738281 26.882812 L 47.515625 60.8125 C 47.878906 61.640625 48.839844 62.019531 49.671875 61.660156 C 50.519531 61.289062 50.894531 60.328125 50.535156 59.496094 L 44.804688 46.34375 C 43.71875 43.855469 44.847656 40.949219 47.339844 39.863281 C 49.84375 38.773438 52.742188 39.929688 53.832031 42.433594 L 55.632812 46.417969 L 60.832031 58.347656 C 61.191406 59.179688 62.15625 59.558594 62.984375 59.199219 C 63.816406 58.835938 64.195312 57.875 63.832031 57.042969 L 58.628906 45.089844 C 57.542969 42.601562 58.695312 39.707031 61.183594 38.621094 C 63.675781 37.535156 66.582031 38.664062 67.664062 41.152344 L 74.484375 56.8125 C 74.847656 57.640625 75.808594 58.019531 76.640625 57.65625 C 77.46875 57.296875 77.847656 56.332031 77.488281 55.503906 L 72.945312 45.070312 C 71.859375 42.582031 73.003906 39.667969 75.492188 38.585938 C 77.976562 37.492188 80.890625 38.640625 81.976562 41.128906 Z M 81.976562 41.128906 " fill-opacity="1" fill-rule="nonzero"/><path fill="#bbe1d7" d="M 22.042969 16.179688 C 21.464844 16.179688 20.910156 15.84375 20.664062 15.273438 L 15.503906 3.421875 C 15.171875 2.660156 15.519531 1.773438 16.28125 1.441406 C 17.042969 1.113281 17.929688 1.460938 18.261719 2.222656 L 23.421875 14.074219 C 23.753906 14.835938 23.40625 15.722656 22.644531 16.054688 C 22.449219 16.140625 22.246094 16.179688 22.042969 16.179688 Z M 22.042969 16.179688 " fill-opacity="1" fill-rule="nonzero"/><g clip-path="url(#b7ffc390aa)"><path fill="#bbe1d7" d="M 29.242188 15.734375 C 29.101562 15.734375 28.957031 15.714844 28.816406 15.671875 C 28.019531 15.4375 27.566406 14.597656 27.800781 13.804688 L 31.464844 1.40625 C 31.699219 0.609375 32.535156 0.15625 33.332031 0.390625 C 34.128906 0.625 34.582031 1.460938 34.347656 2.257812 L 30.683594 14.65625 C 30.488281 15.3125 29.890625 15.734375 29.242188 15.734375 Z M 29.242188 15.734375 " fill-opacity="1" fill-rule="nonzero"/></g><path fill="#bbe1d7" d="M 36.957031 18.316406 C 36.46875 18.316406 35.992188 18.078125 35.703125 17.640625 C 35.242188 16.949219 35.433594 16.015625 36.125 15.558594 L 46.898438 8.414062 C 47.59375 7.957031 48.527344 8.144531 48.984375 8.835938 C 49.445312 9.527344 49.253906 10.464844 48.5625 10.921875 L 37.785156 18.0625 C 37.53125 18.234375 37.238281 18.316406 36.957031 18.316406 Z M 36.957031 18.316406 " fill-opacity="1" fill-rule="nonzero"/><path fill="#bbe1d7" d="M 1.648438 31.457031 C 0.96875 31.457031 0.355469 30.992188 0.1875 30.304688 C -0.0078125 29.496094 0.492188 28.683594 1.300781 28.492188 L 13.867188 25.464844 C 14.675781 25.269531 15.488281 25.769531 15.679688 26.578125 C 15.875 27.382812 15.378906 28.195312 14.570312 28.390625 L 2.003906 31.414062 C 1.882812 31.441406 1.765625 31.457031 1.648438 31.457031 Z M 1.648438 31.457031 " fill-opacity="1" fill-rule="nonzero"/><path fill="#bbe1d7" d="M 16.8125 21.148438 C 16.589844 21.148438 16.359375 21.097656 16.144531 20.988281 L 4.570312 15.230469 C 3.828125 14.859375 3.523438 13.957031 3.894531 13.210938 C 4.265625 12.46875 5.167969 12.164062 5.910156 12.535156 L 17.484375 18.296875 C 18.230469 18.667969 18.53125 19.570312 18.160156 20.3125 C 17.898438 20.84375 17.367188 21.148438 16.8125 21.148438 Z M 16.8125 21.148438 " fill-opacity="1" fill-rule="nonzero"/></svg>